<svg width="65" height="93" viewBox="0 0 65 93" fill="none" xmlns="http://www.w3.org/2000/svg">
<g clip-path="url(#clip0_88_10)">
<path opacity="0.99" d="M32.5001 58.513C35.0442 58.513 37.1176 56.4375 37.1176 53.8683C37.1176 51.2991 35.0543 49.2236 32.5001 49.2236C29.9459 49.2236 27.8826 51.2991 27.8826 53.8683C27.8826 56.4375 29.9459 58.513 32.5001 58.513ZM32.5001 51.2085C33.9625 51.2085 35.1444 52.3973 35.1444 53.8683C35.1444 55.3393 33.9625 56.5282 32.5001 56.5282C31.0377 56.5282 29.8558 55.3393 29.8558 53.8683C29.8558 52.3973 31.0377 51.2085 32.5001 51.2085Z" fill="#0D0C05"/>
<path opacity="0.99" d="M32.4997 47.7123C33.7318 47.7123 34.9137 48.075 35.9253 48.7601C35.9854 48.8004 36.0656 48.8206 36.1357 48.8206C36.2559 48.8206 36.366 48.7601 36.4462 48.6594C36.5564 48.4881 36.5163 48.2564 36.346 48.1455C35.2142 47.3698 33.882 46.9667 32.5098 46.9667C32.3094 46.9667 32.1392 47.138 32.1392 47.3395C32.1392 47.541 32.3094 47.7123 32.5098 47.7123H32.4997Z" fill="#0D0C05"/>
<path opacity="0.99" d="M32.5001 60.7699C32.7004 60.7699 32.8707 60.5986 32.8707 60.3971C32.8707 60.1956 32.7004 60.0243 32.5001 60.0243C29.1246 60.0243 26.3801 57.2637 26.3801 53.8683C26.3801 53.6668 26.2098 53.4955 26.0095 53.4955C25.8092 53.4955 25.6389 53.6668 25.6389 53.8683C25.6389 57.6768 28.7139 60.7699 32.5001 60.7699Z" fill="#0D0C05"/>
<path opacity="0.99" d="M55.4473 30.6447V15.9651C55.4473 7.27009 48.4359 0.217392 39.7918 0.217392H25.198C16.5539 0.217392 9.54248 7.27009 9.54248 15.9651V30.6447C3.7831 31.7329 0.217285 33.2341 0.217285 34.8864C0.217285 36.4078 3.24222 37.7982 8.22033 38.8561L10.1935 48.7601C10.2136 49.0422 10.2737 49.4351 10.4239 49.8986L11.5057 55.309C12.4873 60.2358 15.8528 64.7294 20.7908 67.7318V75.9633L13.6492 72.3967C13.1283 72.1247 12.5073 72.1549 12.0065 72.4672C11.5057 72.7796 11.2052 73.3337 11.2052 73.9181V90.3408C11.2052 90.9251 11.4957 91.4692 12.0065 91.7815C12.287 91.9528 12.5975 92.0435 12.898 92.0435C13.1584 92.0435 13.4088 91.983 13.6592 91.8521L27.8223 84.7691C28.7338 86.4013 30.4766 87.5096 32.4799 87.5096C34.4831 87.5096 36.2961 86.361 37.1976 84.6785L51.5309 91.8621C51.7813 91.983 52.0317 92.0435 52.2922 92.0435C52.5926 92.0435 52.9032 91.9528 53.1736 91.7815C53.6744 91.4692 53.9849 90.9251 53.9849 90.3408V73.9181C53.9849 73.3236 53.6844 72.7796 53.1736 72.4672C52.6728 72.165 52.0618 72.1347 51.5309 72.3967L45.6714 75.3286V66.9057C49.9183 63.9335 52.793 59.8026 53.6844 55.309L54.8063 49.6971C54.9465 49.2437 54.9966 48.881 55.0166 48.6493L56.9798 38.8158C61.8377 37.7579 64.7825 36.3876 64.7825 34.8864C64.7825 33.2341 61.2167 31.7329 55.4573 30.6447H55.4473ZM14.16 88.2955V75.9533L26.4701 82.1193L14.16 88.2854V88.2955ZM35.4347 83.812C34.8437 84.8397 33.7419 85.5449 32.4799 85.5449C31.2178 85.5449 30.1761 84.88 29.5851 83.8926C29.2746 83.3788 29.0943 82.7742 29.0943 82.1294C29.0943 81.4846 29.2746 80.8801 29.5851 80.3662C30.1761 79.3789 31.2479 78.7139 32.4799 78.7139C33.7119 78.7139 34.8437 79.4192 35.4347 80.4468C35.7151 80.9405 35.8754 81.5148 35.8754 82.1294C35.8754 82.744 35.7051 83.3183 35.4347 83.812ZM32.4799 76.7291C30.4766 76.7291 28.7438 77.8373 27.8223 79.4695L23.7356 77.4343V69.4144L29.3848 72.5881C30.3564 73.1322 31.4682 73.4244 32.59 73.4244C33.7119 73.4244 34.8137 73.1322 35.7953 72.5881L42.7166 68.6991V76.7996L37.1976 79.5602C36.3061 77.8776 34.5232 76.7291 32.4799 76.7291ZM51.0301 75.9533V88.2955L38.71 82.1294L51.0301 75.9633V75.9533ZM50.7997 54.7146C49.9383 59.0369 46.8132 62.9965 42.2157 65.5757L34.3629 69.9786C33.2812 70.5831 31.9089 70.5831 30.8372 69.9786L22.9844 65.5757C18.3969 62.9965 15.2618 59.0369 14.4004 54.7146L14.2201 53.7977C16.0431 54.6844 18.437 55.2385 21.3918 55.44C22.1631 60.931 26.8507 65.1727 32.5099 65.1727C38.1691 65.1727 42.8668 60.931 43.628 55.44C46.663 55.2183 49.127 54.634 51.0001 53.6869L50.7997 54.7045V54.7146ZM24.2164 53.8683C24.2164 49.2639 27.9325 45.5259 32.5099 45.5259C37.0874 45.5259 40.8034 49.2639 40.8034 53.8683C40.8034 58.4727 37.0874 62.2106 32.5099 62.2106C27.9325 62.2106 24.2164 58.4727 24.2164 53.8683ZM51.9616 48.9011C51.591 49.8381 50.0385 51.9741 43.6581 52.4779C42.967 46.8962 38.2393 42.5638 32.5099 42.5638C26.7806 42.5638 22.0529 46.8962 21.3617 52.4779C16.6541 52.1152 14.6909 50.8658 13.9096 50.0598C13.5791 49.7172 13.3988 49.4049 13.2886 49.143L11.3554 39.4505C17.0247 40.3674 24.4167 40.9316 32.5099 40.9316C40.6031 40.9316 48.1654 40.3573 53.8547 39.4203L51.9616 48.9011Z" fill="#0D0C05"/>
</g>
<defs>
<clipPath id="clip0_88_10">
<rect width="64.5652" height="91.8261" fill="white" transform="translate(0.217285 0.217392)"/>
</clipPath>
</defs>
</svg>
